<?xml version="1.0" encoding="UTF-8"?>
<svg width="128px" height="135px" viewBox="0 0 128 135" version="1.1" xmlns="http://www.w3.org/2000/svg" xmlns:xlink="http://www.w3.org/1999/xlink">
    <title>illustrations</title>
    <defs>
        <linearGradient x1="50%" y1="0%" x2="50%" y2="100%" id="linearGradient-1">
            <stop stop-color="#AB2DFD" offset="0%"></stop>
            <stop stop-color="#7214FA" offset="100%"></stop>
        </linearGradient>
    </defs>
    <g id="Mobile-Challenge" stroke="none" stroke-width="1" fill="none" fill-rule="evenodd">
        <g id="2:-Cuff" transform="translate(-123.000000, -136.000000)">
            <g id="Info-Screen-Block" transform="translate(20.000000, 136.000000)">
                <g id="illustrations" transform="translate(103.000000, 0.000000)">
                    <rect id="Bounding" x="0" y="0" width="128" height="128"></rect>
                    <g id="BP-Arm" transform="translate(58.310000, 71.671874) rotate(-60.000000) translate(-58.310000, -71.671874) translate(2.310000, 42.171874)">
                        <g id="Group" transform="translate(-0.000000, -0.000000)" fill="#FEFFFF" fill-rule="nonzero">
                            <path d="M52.2893625,9.79645212 L22.6647773,49.6757014 C22.2936114,50.1753478 22.1762243,50.8193168 22.3472171,51.4177916 L24.091884,57.5241258 C24.3371992,58.3827289 25.1219712,58.9746835 26.0149319,58.9746835 L43.164557,58.9746835 C44.2691265,58.9746835 45.164557,58.079253 45.164557,56.9746835 L45.164557,49.66368 C45.164557,49.3928264 45.2195725,49.1247951 45.3262669,48.8758414 L59.5074921,15.786316 C59.6526917,15.4475168 59.9858279,15.2278481 60.3544304,15.2278481 C60.4934261,15.2278481 60.6061044,15.1151698 60.6061044,14.976174 C60.6061044,14.9094259 60.5795889,14.8454116 60.5323908,14.7982136 L55.3090638,9.57488656 C54.5280152,8.79383797 53.2616852,8.79383797 52.4806366,9.57488656 C52.4115525,9.64397075 52.3476232,9.71802421 52.2893625,9.79645212 Z" id="Path" transform="translate(41.518987, 33.455696) rotate(-90.000000) translate(-41.518987, -33.455696) "></path>
                            <path d="M10.1689093,22.4779733 L16.1661282,22.4779733 C17.6274104,22.4779733 19.0035221,21.9085478 20.0389519,20.8743347 L22.190115,18.7231716 C23.4615887,17.4516979 24.1624201,15.7592387 24.1624201,13.9609247 C24.1624201,12.1626107 23.4615887,10.4701515 22.190115,9.19867783 L16.1381437,3.14670646 C15.5553342,2.56389699 14.539372,2.56389699 13.9565625,3.14670646 C13.3555022,3.74776674 13.3555022,4.72722733 13.9565625,5.32828761 L14.2497923,5.62151743 C14.369031,5.74075611 14.4274336,5.89649643 14.4274336,6.05223674 C14.4274336,6.20797706 14.3678143,6.36371738 14.2497923,6.48295606 C14.0125317,6.7202167 13.626831,6.7202167 13.3895704,6.48295606 L11.5754391,4.66882471 C10.9926296,4.08601524 9.97666737,4.08601524 9.3938579,4.66882471 C8.79279762,5.269885 8.79279762,6.24934558 9.3938579,6.85040587 L11.2079893,8.66453722 C11.3272279,8.7837759 11.3856305,8.93951621 11.3856305,9.09525653 C11.3856305,9.25099685 11.3260112,9.40552044 11.2079893,9.52475912 C10.9707286,9.76201976 10.585028,9.76201976 10.3477673,9.52475912 L7.61987835,6.79808686 C7.03706889,6.21527739 6.02110666,6.21527739 5.4382972,6.79808686 C5.14750082,7.08888323 4.98689362,7.4770173 4.98689362,7.88826907 C4.98689362,8.29952085 5.14750082,8.68765492 5.4382972,8.97845129 L8.16496946,11.7051236 C8.28420814,11.8243622 8.34261076,11.9801026 8.34261076,12.1358429 C8.34261076,12.2915832 8.28299142,12.4473235 8.16496946,12.5665622 C7.92770882,12.8038228 7.5420082,12.8038228 7.30474756,12.5665622 L5.79479652,11.0566111 C5.21198705,10.4738017 4.19602482,10.4738017 3.61321536,11.0566111 C3.01215507,11.6576714 3.01215507,12.637132 3.61321536,13.2381923 L8.16496946,17.7899464 C8.28420814,17.9091851 8.34261076,18.0649254 8.34261076,18.2206657 C8.34261076,18.376406 8.28299142,18.5321464 8.16496946,18.651385 C7.92770882,18.8886457 7.5420082,18.8886457 7.30474756,18.651385 L5.91038503,17.2545891 L5.91038503,18.219449 C5.91038503,20.567721 7.82063736,22.4779733 10.1689093,22.4779733 L10.1689093,22.4779733 Z" id="Path" transform="translate(13.662420, 12.593786) rotate(-345.000000) translate(-13.662420, -12.593786) "></path>
                            <path d="M88.792673,54.0996777 L58.9881303,50.5231326 C58.6877248,50.4870839 58.3994132,50.3833479 58.1449056,50.2197359 L44.6059826,41.5161425 C43.6768425,40.9188382 43.4078365,39.6814105 44.0051408,38.7522704 C44.2130728,38.4288206 44.5098379,38.172168 44.8598919,38.0130526 L67.8587771,27.5590139 C68.1186883,27.4408724 68.4008812,27.3797468 68.6863829,27.3797468 L82.0070159,27.3797468 C82.5374489,27.3797468 83.0461567,27.5904605 83.4212295,27.9655333 L96.9128991,41.4572029 C97.2393595,41.7836633 97.4428205,42.2130155 97.4887599,42.672409 L98.4130106,51.9149166 C98.5229194,53.0140043 97.7210314,53.9940897 96.6219437,54.1039984 C96.555814,54.1106114 96.4893958,54.1139241 96.4229363,54.1139241 L89.0309635,54.1139241 C88.9513205,54.1139241 88.8717487,54.1091668 88.792673,54.0996777 Z" id="Path"></path>
                            <circle id="Oval" cx="97.4177215" cy="39.5316456" r="14.5822785"></circle>
                        </g>
                        <g id="Group-3" transform="translate(62.001445, 31.069952) rotate(-75.000000) translate(-62.001445, -31.069952) translate(39.001445, 10.569952)">
                            <path d="M29.1615786,0.607594937 C35.4875184,0.607594937 40.6701909,5.50250425 41.1286139,11.7113408 C40.0454846,11.2959654 38.8671437,11.0687947 37.6351452,11.0687947 C32.2792579,11.0687947 27.9374535,15.3621302 27.9374535,20.6582278 C27.9374535,25.9543255 32.2792579,30.247661 37.6351452,30.247661 C38.8671437,30.247661 40.0454846,30.0204903 41.1296653,29.6061994 C40.6696358,35.8144757 35.4871796,40.7088608 29.1615786,40.7088608 L12.6075949,40.7088608 C5.98017794,40.7088608 0.607594937,35.3362778 0.607594937,28.7088608 L0.607594937,12.6075949 C0.607594937,5.98017794 5.98017794,0.607594937 12.6075949,0.607594937 L29.1615786,0.607594937 Z M37.6351452,12.812328 C42.0172348,12.812328 45.5696203,16.325057 45.5696203,20.6582278 C45.5696203,24.9913987 42.0172348,28.5041277 37.6351452,28.5041277 C33.2530556,28.5041277 29.7006701,24.9913987 29.7006701,20.6582278 C29.7006701,16.325057 33.2530556,12.812328 37.6351452,12.812328 Z M37.6351452,14.5558613 C34.2268533,14.5558613 31.4638868,17.2879839 31.4638868,20.6582278 C31.4638868,24.0284718 34.2268533,26.7605944 37.6351452,26.7605944 C41.0434371,26.7605944 43.8064036,24.0284718 43.8064036,20.6582278 C43.8064036,17.2879839 41.0434371,14.5558613 37.6351452,14.5558613 Z" id="Combined-Shape" fill="url(#linearGradient-1)"></path>
                            <path d="M38.9893603,15.6038427 C39.1987914,15.6250222 39.3644069,15.7906378 39.3855864,16.0000688 L39.6666286,18.7677014 C40.280505,19.0404231 40.707999,19.6502966 40.707999,20.358902 C40.707999,21.3218289 39.91858,22.1024353 38.9447823,22.1024353 C37.9709846,22.1024353 37.1815656,21.3218289 37.1815656,20.358902 C37.1815656,19.6499083 37.6095281,19.0397548 38.2239452,18.7672534 L38.5039781,16.0000688 C38.5285979,15.7566194 38.7459109,15.5792229 38.9893603,15.6038427 Z" id="Combined-Shape-Copy-4" fill="#FEFFFF" transform="translate(38.944782, 18.851998) rotate(-330.000000) translate(-38.944782, -18.851998) "></path>
                        </g>
                    </g>
                </g>
            </g>
        </g>
    </g>
</svg>