<?xml version="1.0" encoding="UTF-8"?>
<svg width="20px" height="20px" viewBox="0 0 20 20" version="1.1" xmlns="http://www.w3.org/2000/svg" xmlns:xlink="http://www.w3.org/1999/xlink">
    <title>Moon@1.5x</title>
    <defs>
        <linearGradient x1="50%" y1="0%" x2="50%" y2="95.6459721%" id="linearGradient-1">
            <stop stop-color="#FBFAFE" offset="0%"></stop>
            <stop stop-color="#F4F2F7" offset="100%"></stop>
        </linearGradient>
    </defs>
    <g id="Symbols" stroke="none" stroke-width="1" fill="none" fill-rule="evenodd">
        <g id="Icons/Task-Row-Icon/Evening-Check-In" transform="translate(-15.000000, -15.000000)" fill="url(#linearGradient-1)">
            <path d="M26.6302382,27.7694586 C25.5332074,27.3508988 24.5914455,26.7500623 23.8049574,25.9669489 C23.0184693,25.1838356 22.4125705,24.2471407 21.9872564,23.1568594 C21.5619438,22.0665782 21.3492877,20.846339 21.3492877,19.4961465 C21.3492877,19.0708338 21.3762916,18.6404609 21.4302993,18.2050224 C21.4843069,17.7695853 21.5568801,17.3527115 21.6480181,16.9544053 C21.739156,16.5560976 21.8488595,16.2084241 21.9771278,15.9113806 C22.0108827,15.823618 22.0345111,15.7476695 22.0480132,15.6835356 C22.0615151,15.6194012 22.0682661,15.5637058 22.0682661,15.5164492 C22.0682661,15.3881809 22.0210095,15.270039 21.9264958,15.1620233 C21.8319822,15.0540076 21.7003382,15 21.5315639,15 C21.4843068,15 21.4201729,15.006751 21.3391613,15.0202529 C21.2581496,15.0337549 21.1737627,15.0540077 21.0860001,15.0810116 C19.8775774,15.5805806 18.8159866,16.3181248 17.9012279,17.293644 C16.9864739,18.2691585 16.2742454,19.3931972 15.7645472,20.6657552 C15.2548491,21.9383132 15,23.2665648 15,24.6505147 C15,26.0884708 15.2582239,27.4133476 15.7746716,28.6251498 C16.2911194,29.836952 17.0100974,30.8934759 17.9316058,31.7947307 C18.8531141,32.6959855 19.9315836,33.3947101 21.1670094,33.8909091 C22.4024352,34.3871033 23.7357537,34.6352028 25.1669602,34.6352028 C26.2201092,34.6352028 27.2361307,34.4849937 28.2150248,34.1845754 C29.1939141,33.8841571 30.0968563,33.4672847 30.9238515,32.9339583 C31.7508466,32.4006318 32.4681373,31.7812291 33.0757234,31.075755 C33.6833096,30.3702761 34.1390016,29.6091037 34.4427946,28.7922377 C34.4833004,28.704475 34.506929,28.6200881 34.51368,28.5390764 C34.520431,28.4580648 34.5238065,28.3973062 34.5238065,28.3568001 C34.5238065,28.1880258 34.4697989,28.0513187 34.3617832,27.9466788 C34.2537675,27.8420388 34.1322503,27.7897186 33.9972306,27.7897186 C33.9162189,27.7897186 33.804828,27.8133471 33.6630577,27.860604 C33.2715024,27.9888722 32.7736194,28.1103899 32.1694033,28.2251566 C31.5651919,28.3399228 30.9356649,28.3973062 30.2808174,28.3973062 C28.9441334,28.3972983 27.727269,28.1880184 26.6302382,27.7694586 Z" id="Moon"></path>
        </g>
    </g>
</svg>