<?xml version="1.0" encoding="UTF-8"?>
<svg width="24px" height="24px" viewBox="0 0 24 24" version="1.1" xmlns="http://www.w3.org/2000/svg" xmlns:xlink="http://www.w3.org/1999/xlink">
    <title>Sun@1.5x</title>
    <defs>
        <linearGradient x1="50%" y1="0%" x2="50%" y2="95.6459721%" id="linearGradient-1">
            <stop stop-color="#FBFAFE" offset="0%"></stop>
            <stop stop-color="#F4F2F7" offset="100%"></stop>
        </linearGradient>
    </defs>
    <g id="Symbols" stroke="none" stroke-width="1" fill="none" fill-rule="evenodd">
        <g id="Icons/Task-Row-Icon/Morning-Check-In" transform="translate(-13.000000, -13.000000)" fill="url(#linearGradient-1)">
            <path d="M25,13.2866891 C25,13.2184298 24.9502925,13.1535833 24.8508773,13.09215 C24.7514619,13.0307167 24.6374271,13 24.5087722,13 C24.3801172,13 24.2631583,13.0307167 24.1578945,13.09215 C24.0526315,13.1535833 24,13.2184298 24,13.2866891 L24,15.7133109 C24,15.7883962 24.0526315,15.8549488 24.1578945,15.9129694 C24.2631575,15.97099 24.3801164,16 24.5087722,16 C24.6374271,16 24.7514619,15.9709898 24.8508773,15.9129694 C24.9502927,15.8549488 25,15.7883962 25,15.7133109 L25,13.2866891 Z M25,34.2969285 C25,34.2150172 24.9502925,34.1450513 24.8508773,34.0870307 C24.7514619,34.0290101 24.6374271,34 24.5087722,34 C24.3801172,34 24.2631583,34.0290102 24.1578945,34.0870307 C24.0526315,34.1450513 24,34.2150172 24,34.2969285 L24,36.7133107 C24,36.78157 24.0526315,36.8464166 24.1578945,36.90785 C24.2631575,36.9692833 24.3801164,37 24.5087722,37 C24.6374271,37 24.7514619,36.9692833 24.8508773,36.90785 C24.9502927,36.8464166 25,36.78157 25,36.7133107 L25,34.2969285 Z M36.7133109,25 C36.7883962,25 36.8549488,24.9494048 36.9129694,24.8482143 C36.97099,24.7470236 37,24.6309524 37,24.5 C37,24.3690476 36.9709898,24.2529764 36.9129694,24.1517857 C36.8549488,24.050595 36.7883962,24 36.7133109,24 L34.2866891,24 C34.2116038,24 34.1450512,24.0505952 34.0870306,24.1517857 C34.02901,24.2529764 34,24.3690476 34,24.5 C34,24.6309524 34.0290102,24.7470236 34.0870306,24.8482143 C34.1450512,24.949405 34.2116038,25 34.2866891,25 L36.7133109,25 Z M13.2866891,24 C13.2184298,24 13.1535833,24.0505952 13.09215,24.1517857 C13.0307167,24.2529764 13,24.3690476 13,24.5 C13,24.6309524 13.0307167,24.7470236 13.09215,24.8482143 C13.1535833,24.949405 13.2184298,25 13.2866891,25 L15.7133109,25 C15.7883962,25 15.8549488,24.9494048 15.9129694,24.8482143 C15.97099,24.7470236 16,24.6309524 16,24.5 C16,24.3690476 15.9709898,24.2529764 15.9129694,24.1517857 C15.8549488,24.050595 15.7883962,24 15.7133109,24 L13.2866891,24 Z M18.3542605,18.8928571 C18.4170411,18.9642855 18.5022424,19 18.6098657,19 C18.7174889,19 18.8071748,18.9642857 18.8789241,18.8928571 C18.9596414,18.8214288 19,18.7321425 19,18.6249997 C19,18.5178568 18.9596414,18.4285712 18.8789241,18.3571422 L16.6457395,16.1205355 C16.5739908,16.0401785 16.4865466,16 16.383408,16 C16.2802694,16 16.1883411,16.0401785 16.1076232,16.1205355 C16.0358746,16.1830358 16,16.2678568 16,16.3749997 C16,16.4821425 16.0358744,16.5714282 16.1076232,16.6428571 L18.3542605,18.8928571 Z M31.121076,18.3571434 C31.0403587,18.4285717 31,18.5156255 31,18.6183037 C31,18.7209818 31.0403587,18.8124997 31.121076,18.8928572 C31.1928247,18.9642855 31.2780267,19 31.3766814,19 C31.475336,19 31.565022,18.9642857 31.64574,18.8928572 L33.8923767,16.642856 C33.9641253,16.5714277 34,16.4843738 34,16.3816957 C34,16.2790175 33.9641255,16.1919637 33.8923767,16.1205354 C33.820628,16.0401785 33.7331837,16 33.630045,16 C33.5269063,16 33.439462,16.0401785 33.3677133,16.1205354 L31.121076,18.3571434 Z M31.6457395,31.1205354 C31.5739908,31.0401785 31.4865465,31 31.3834078,31 C31.2802691,31 31.1928247,31.0401785 31.121076,31.1205354 C31.0403587,31.1919637 31,31.2790175 31,31.3816957 C31,31.4843738 31.0403587,31.5714277 31.121076,31.642856 L33.3677132,33.8928572 C33.4394619,33.9642855 33.5269062,34 33.6300449,34 C33.7331836,34 33.820628,33.9598215 33.8923766,33.8794646 C33.9641253,33.8080363 34,33.7209825 34,33.6183043 C34,33.5156262 33.9641255,33.4285723 33.8923766,33.357144 L31.6457395,31.1205354 Z M16.1071429,33.351351 C16.0357145,33.4144145 16,33.5 16,33.6081078 C16,33.716216 16.0357143,33.806306 16.1071429,33.8783786 C16.1785713,33.9594595 16.2656252,34 16.3683035,34 C16.4709817,34 16.5624996,33.9594595 16.6428573,33.8783786 L18.8794645,31.648649 C18.9598215,31.5765771 19,31.4887388 19,31.3851355 C19,31.2815322 18.9598215,31.1891898 18.8794645,31.1081082 C18.8169641,31.0360363 18.7321431,31 18.6250002,31 C18.5178574,31 18.4285717,31.0360361 18.3571427,31.1081082 L16.1071429,33.351351 Z M24.994546,20 C24.3111608,20 23.669575,20.1325344 23.0697939,20.3976036 C22.4700127,20.6626728 21.9392985,21.0239643 21.4776461,21.4814837 C21.0159952,21.9390016 20.6543098,22.4691396 20.3925845,23.071898 C20.1308617,23.6746565 20,24.3173588 20,25 C20,25.6826412 20.1308617,26.3253435 20.3925845,26.928102 C20.6543073,27.5308604 21.0159937,28.0609968 21.4776461,28.5185163 C21.939297,28.9760342 22.4700127,29.3373257 23.0697939,29.6023964 C23.669575,29.8674656 24.3111608,30 24.994546,30 C25.6852049,30 26.330425,29.8674656 26.9302061,29.6023964 C27.5299873,29.3373272 28.0607015,28.9760357 28.5223539,28.5185163 C28.9840048,28.0609984 29.3456902,27.5308604 29.6074155,26.928102 C29.8691383,26.3253435 30,25.6826412 30,25 C30,24.3173588 29.8691383,23.6746565 29.6074155,23.071898 C29.3456927,22.4691396 28.9840063,21.9390032 28.5223539,21.4814837 C28.060703,21.0239658 27.5299873,20.6626743 26.9302061,20.3976036 C26.330425,20.1325344 25.6852049,20 24.994546,20 L24.994546,20 Z" id="Sun"></path>
        </g>
    </g>
</svg>