<?xml version="1.0" encoding="UTF-8"?>
<svg width="20px" height="19px" viewBox="0 0 20 19" version="1.1" xmlns="http://www.w3.org/2000/svg" xmlns:xlink="http://www.w3.org/1999/xlink">
    <title>TinyHeart</title>
    <defs>
        <linearGradient x1="50%" y1="0%" x2="50%" y2="100%" id="linearGradient-1">
            <stop stop-color="#AB2DFD" offset="0%"></stop>
            <stop stop-color="#7214FA" offset="100%"></stop>
        </linearGradient>
        <path d="M14.4746655,-1.95399252e-14 C15.2640018,-1.95399252e-14 15.9946684,0.14234602 16.6666655,0.427038557 C17.3386626,0.711732586 17.9235514,1.11564211 18.4213319,1.63876217 C18.9191125,2.16188223 19.3066665,2.78109125 19.5839999,3.49637928 C19.8613333,4.21166731 20,4.99634988 20,5.850427 C20,7.26677134 19.5857778,8.66887899 18.7573335,10.0567549 C17.9288891,11.4446309 16.7946647,12.8022544 15.3546654,14.1296356 C13.914666,15.4570118 12.2666643,16.7363461 10.4106654,17.9676433 C10.3537767,18.0174642 10.2879989,18.0548303 10.213332,18.0797409 C10.1386652,18.1046515 10.0693321,18.1171068 10.0053322,18.1171068 C9.93422074,18.1171068 9.86133181,18.1046515 9.78666498,18.0797409 C9.71199814,18.0548304 9.64266504,18.0174647 9.57866518,17.9676433 C7.72978083,16.736351 6.08533401,15.4570168 4.64533464,14.1296356 C3.20533526,12.8022544 2.07111091,11.4446309 1.24266655,10.0567549 C0.414222183,8.66887899 1.24344979e-14,7.26677134 1.24344979e-14,5.850427 C1.24344979e-14,4.99634988 0.138666698,4.21166731 0.416000095,3.49637928 C0.693331505,2.78109125 1.08088749,2.16188223 1.57866806,1.63876217 C2.07644862,1.11563714 2.66133743,0.711731095 3.33333449,0.427038557 C4.00533155,0.14234602 4.73599821,-1.95399252e-14 5.52533447,-1.95399252e-14 C6.4426645,-1.95399252e-14 7.31555418,0.250883755 8.14399855,0.752656234 C8.97244291,1.25442871 9.59288649,1.93234854 10.0053298,2.78642566 C10.4035552,1.93234854 11.018665,1.25442871 11.8506642,0.752656234 C12.6826684,0.250885246 13.5573355,-1.95399252e-14 14.4746655,-1.95399252e-14 Z M10,5 C7.70238095,5 5.83333333,6.86904762 5.83333333,9.16666667 C5.83333333,11.4642857 7.70238095,13.3333333 10,13.3333333 C12.297619,13.3333333 14.1666667,11.4642857 14.1666667,9.16666667 C14.1666667,6.86904762 12.297619,5 10,5 Z M10,6.19047619 C11.6416667,6.19047619 12.9761905,7.52619048 12.9761905,9.16666667 C12.9761905,10.8071429 11.6416667,12.1428571 10,12.1428571 C8.35833333,12.1428571 7.02380952,10.8071429 7.02380952,9.16666667 C7.02380952,7.52619048 8.35833333,6.19047619 10,6.19047619 Z M11.9004751,7.68288108 C11.6566642,7.43903964 11.2603151,7.43903964 11.0165041,7.68288108 L11.0165041,7.68288108 L9.76619155,8.93335001 C9.5223806,9.17719145 9.5223806,9.5735901 9.76619155,9.81743154 C9.88872218,9.93872702 10.0487622,10 10.2088022,10 C10.3688422,10 10.5288822,9.93872702 10.6501625,9.81743154 L10.6501625,9.81743154 L11.9004751,8.56696261 C12.1442861,8.32312117 12.1442861,7.92672252 11.9004751,7.68288108 Z" id="path-2"></path>
    </defs>
    <g id="Mobile-Challenge" stroke="none" stroke-width="1" fill="none" fill-rule="evenodd">
        <g id="7:-Trends" transform="translate(-25.000000, -187.000000)">
            <g id="Trends/BP-Card---Week" transform="translate(12.000000, 164.000000)">
                <g id="Card-Top-UI" transform="translate(13.000000, 18.000000)">
                    <g id="TinyHeart" transform="translate(0.000000, 5.000000)">
                        <circle id="Oval" fill="#FEFFFF" cx="10" cy="9" r="5"></circle>
                        <mask id="mask-3" fill="white">
                            <use xlink:href="#path-2"></use>
                        </mask>
                        <use id="Combined-Shape" fill="url(#linearGradient-1)" xlink:href="#path-2"></use>
                    </g>
                </g>
            </g>
        </g>
    </g>
</svg>